<svg width="385" height="388" viewBox="0 0 385 388" fill="none" xmlns="http://www.w3.org/2000/svg">
<path d="M195.77 387.778C91.4502 387.778 6.88086 303.21 6.88086 198.89C6.88086 94.569 91.4502 9.9996 195.77 9.9996C300.09 9.9996 384.659 94.569 384.659 198.89C384.659 303.21 300.09 387.778 195.77 387.778Z" fill="#11CDB7"/>
<path d="M378.222 189.007C378.222 293.328 293.653 377.896 189.333 377.896C85.0127 377.896 0.443359 293.328 0.443359 189.007C0.443359 84.6872 85.0127 0.119202 189.333 0.119202C293.653 0.119202 378.222 84.6872 378.222 189.007Z" fill="#3983D0"/>
<path d="M306.413 302.507C306.413 323.194 263.553 339.963 210.682 339.963C157.811 339.963 114.951 323.194 114.951 302.507C114.951 281.819 157.811 265.05 210.682 265.05C263.553 265.05 306.413 281.819 306.413 302.507Z" fill="#4B6EC0"/>
<path d="M281.667 289.341C281.667 306.078 247.281 319.645 204.862 319.645C162.445 319.645 128.057 306.078 128.057 289.341C128.057 272.603 162.445 259.035 204.862 259.035C247.281 259.035 281.667 272.603 281.667 289.341Z" fill="#11CDB7"/>
<path d="M221.646 309.562H175.262C144.957 309.562 120.162 284.767 120.162 254.462V147.767C120.162 106.218 154.157 72.2229 195.706 72.2229H201.202C242.751 72.2229 276.747 106.218 276.747 147.767V254.462C276.747 284.767 251.953 309.562 221.646 309.562Z" fill="#4B96E6"/>
<path d="M80.8058 305.214L74.9258 300.689C88.6938 282.802 94.4564 257.963 92.0578 226.862C91.1098 214.559 89.0764 202.071 87.1098 189.994C84.8591 176.167 82.5311 161.873 81.7658 147.579C80.0231 115.066 87.7378 88.0859 104.078 69.5552C118.187 53.5525 139.81 43.2446 161.919 41.9792C176.135 41.1646 189.53 43.9352 200.638 49.9925C213 56.7325 222.03 67.5139 225.41 79.5726L218.263 81.5752C215.42 71.4326 207.702 62.2952 197.083 56.5072C187.336 51.1926 174.999 48.6645 162.342 49.3872C142.171 50.5405 122.47 59.9165 109.643 74.4632C90.6591 95.9939 88.0338 125.891 89.1751 147.181C89.9204 161.075 92.2151 175.17 94.4338 188.801C96.4245 201.031 98.4831 213.677 99.4565 226.293C102 259.275 95.7258 285.83 80.8058 305.214Z" fill="#9FCAEE"/>
<path d="M72.1786 296.176L61.7106 292.863C61.008 292.642 60.2586 293.03 60.0373 293.732C59.8146 294.434 60.204 295.183 60.9053 295.406L71.3746 298.718C72.076 298.94 72.8253 298.551 73.048 297.85C73.2706 297.147 72.8813 296.398 72.1786 296.176Z" fill="#5B6FBF"/>
<path d="M69.5527 301.67L58.29 304.912C57.582 305.115 57.1727 305.854 57.3767 306.562C57.5807 307.27 58.3193 307.678 59.0273 307.474L70.2913 304.232C70.998 304.028 71.4073 303.29 71.2033 302.582C70.9993 301.875 70.2607 301.466 69.5527 301.67Z" fill="#5B6FBF"/>
<path d="M72.5155 306.784L68.9369 316.326C68.6782 317.015 69.0275 317.783 69.7169 318.042C70.4075 318.3 71.1755 317.951 71.4342 317.262L75.0129 307.722C75.2702 307.031 74.9222 306.263 74.2315 306.004C73.5422 305.746 72.7742 306.095 72.5155 306.784Z" fill="#5B6FBF"/>
<path d="M79.5836 310.478L83.8236 319.357C84.141 320.021 84.937 320.302 85.601 319.985C86.2663 319.667 86.5476 318.871 86.2303 318.207L81.9903 309.329C81.673 308.663 80.877 308.382 80.2116 308.699C79.5476 309.017 79.2663 309.813 79.5836 310.478Z" fill="#5B6FBF"/>
<path d="M85.9148 305.894L97.3108 307.382C98.0401 307.478 98.7094 306.963 98.8054 306.233C98.9001 305.503 98.3854 304.834 97.6561 304.738L86.2601 303.25C85.5294 303.155 84.8601 303.67 84.7654 304.399C84.6694 305.13 85.1841 305.799 85.9148 305.894Z" fill="#5B6FBF"/>
<path d="M155.685 266.07V149.313C155.685 111.754 183.166 80.3234 219.01 74.0807C216.274 73.7687 213.499 73.5914 210.683 73.5914C170.247 73.5914 137.162 106.675 137.162 147.111V259.498C137.162 285.305 155.638 307.005 180.014 312.027C165.353 301.966 155.685 285.094 155.685 266.07Z" fill="#9FCAEE"/>
<path d="M238.393 79.0644C253.798 94.5924 263.353 115.932 263.353 139.399V270.528C263.353 285.298 258.157 298.904 249.517 309.638C269.735 301.942 284.203 282.331 284.203 259.498V147.111C284.203 116.467 265.195 90.059 238.393 79.0644Z" fill="white"/>
<path d="M263.352 139.399C263.352 115.933 253.797 94.5927 238.392 79.0647C232.29 76.5621 225.786 74.8541 219.009 74.0808C183.165 80.3234 155.684 111.754 155.684 149.313V266.07C155.684 285.094 165.352 301.966 180.013 312.027C183.496 312.745 187.098 313.122 190.785 313.122H230.58C237.238 313.122 243.62 311.881 249.516 309.638C258.156 298.905 263.352 285.298 263.352 270.529V139.399Z" fill="#D6DDF3"/>
<path d="M200.769 186.587C200.769 188.563 199.167 190.166 197.191 190.166C195.214 190.166 193.611 188.563 193.611 186.587C193.611 184.611 195.214 183.009 197.191 183.009C199.167 183.009 200.769 184.611 200.769 186.587Z" fill="#393B62"/>
<path d="M256.916 186.587C256.916 188.563 255.314 190.166 253.338 190.166C251.36 190.166 249.758 188.563 249.758 186.587C249.758 184.611 251.36 183.009 253.338 183.009C255.314 183.009 256.916 184.611 256.916 186.587Z" fill="#393B62"/>
<path d="M198.371 207.27C201.292 203.186 205.392 199.875 210.038 197.642C214.678 195.371 219.89 194.208 225.094 194.2C230.3 194.203 235.514 195.367 240.152 197.638C244.802 199.868 248.902 203.182 251.818 207.27C247.726 204.372 243.458 202.067 238.96 200.522C234.46 199 229.784 198.203 225.094 198.199C220.404 198.198 215.727 198.996 211.227 200.515C206.728 202.062 202.46 204.368 198.371 207.27Z" fill="#393B62"/>
<path d="M260.784 180.679C260.006 181.49 258.915 181.823 257.831 181.815C256.746 181.801 255.655 181.422 254.766 180.77C253.875 180.121 253.187 179.194 252.847 178.161C252.514 177.13 252.506 175.987 253.05 175.001C253.867 175.769 254.472 176.329 255.063 176.817C255.64 177.303 256.176 177.71 256.716 178.114C257.259 178.513 257.81 178.901 258.448 179.307C259.09 179.725 259.807 180.135 260.784 180.679Z" fill="#393B62"/>
<path d="M188.654 182.686C189.632 182.14 190.349 181.731 190.99 181.314C191.629 180.907 192.178 180.519 192.722 180.12C193.262 179.718 193.797 179.31 194.376 178.823C194.965 178.335 195.572 177.776 196.389 177.007C196.933 177.995 196.925 179.136 196.592 180.167C196.252 181.199 195.564 182.127 194.673 182.776C193.784 183.428 192.694 183.807 191.608 183.823C190.525 183.831 189.434 183.498 188.654 182.686Z" fill="#393B62"/>
<path d="M144.628 228.306C144.581 228.341 143.124 229.37 141.628 231.042C140.881 231.879 140.12 232.879 139.53 234.022C138.942 235.163 138.52 236.461 138.52 237.865C138.518 238.831 138.726 239.842 139.2 240.822C140.028 242.545 141.616 244.135 144.121 245.557C147.888 247.69 153.782 249.515 162.912 250.846C172.041 252.171 184.404 252.983 201.065 252.983C208.692 252.983 217.22 252.813 226.746 252.443C227.442 252.417 227.984 251.83 227.957 251.135C227.929 250.441 227.344 249.898 226.649 249.926C217.149 250.294 208.654 250.463 201.065 250.463C175.806 250.467 160.562 248.574 151.788 245.959C147.4 244.658 144.648 243.173 143.07 241.759C142.28 241.053 141.778 240.373 141.47 239.731C141.164 239.089 141.04 238.479 141.038 237.865C141.037 236.978 141.312 236.065 141.77 235.177C142.453 233.845 143.542 232.61 144.461 231.737C144.92 231.298 145.334 230.949 145.63 230.711C145.777 230.593 145.896 230.502 145.974 230.443L146.062 230.378L146.084 230.362C146.652 229.961 146.786 229.174 146.384 228.606C145.982 228.038 145.196 227.903 144.628 228.306Z" fill="#5B6FBF"/>
<path d="M283.468 228.861L283.478 228.869C283.638 228.974 285.337 230.143 286.94 231.827C287.74 232.667 288.513 233.634 289.065 234.627C289.62 235.623 289.942 236.627 289.94 237.569C289.938 238.158 289.822 238.733 289.537 239.335C289.041 240.381 287.982 241.555 285.942 242.726C282.894 244.481 277.702 246.15 269.562 247.339C261.42 248.535 250.328 249.27 235.433 249.27C234.697 249.27 234.1 249.867 234.1 250.603C234.1 251.339 234.697 251.937 235.433 251.937C258.269 251.933 272.312 250.234 280.81 247.686C285.06 246.406 287.942 244.917 289.844 243.21C290.792 242.355 291.49 241.439 291.945 240.481C292.402 239.522 292.608 238.527 292.606 237.569C292.604 235.975 292.065 234.505 291.326 233.209C290.212 231.265 288.629 229.659 287.322 228.503C286.014 227.351 284.976 226.662 284.941 226.639C284.328 226.231 283.5 226.399 283.093 227.013C282.686 227.627 282.853 228.454 283.468 228.861Z" fill="#5B6FBF"/>
<path d="M198.91 313.717C198.91 313.715 199.001 312.492 199.174 310.343C199.781 302.819 201.387 283.993 203.558 267.08C204.642 258.625 205.87 250.643 207.171 244.832C207.819 241.931 208.493 239.564 209.137 238.016C209.454 237.245 209.773 236.68 210.002 236.397C210.114 236.255 210.199 236.188 210.213 236.183L210.186 236.141L210.207 236.185L210.213 236.183L210.186 236.141L210.207 236.185L210.03 235.82V236.22L210.207 236.185L210.03 235.82V236.22V235.764L209.862 236.189L210.03 236.22V235.764L209.862 236.189L209.945 235.983L209.831 236.175L209.862 236.189L209.945 235.983L209.831 236.175L209.839 236.181C209.923 236.225 210.295 236.691 210.649 237.569C211.293 239.108 212.006 241.833 212.705 245.823C214.818 257.817 216.922 281.277 218.814 321.267C218.849 322.001 219.473 322.569 220.209 322.535C220.943 322.5 221.511 321.876 221.477 321.14C219.938 288.64 218.266 267.041 216.542 253.516C215.678 246.749 214.807 242.009 213.905 238.869C213.449 237.296 212.997 236.124 212.461 235.237C212.19 234.795 211.895 234.415 211.507 234.101C211.127 233.791 210.601 233.549 210.03 233.553C209.483 233.552 208.994 233.767 208.63 234.036C207.923 234.569 207.487 235.281 207.043 236.171C206.235 237.836 205.519 240.207 204.815 243.175C202.374 253.525 200.247 271.06 198.711 286.071C197.179 301.072 196.251 313.512 196.25 313.519C196.195 314.253 196.746 314.893 197.481 314.948C198.215 315.003 198.855 314.452 198.91 313.717Z" fill="#5B6FBF"/>
<path d="M234.401 313.661C234.401 313.657 234.492 312.443 234.665 310.307C235.269 302.831 236.873 284.123 239.038 267.314C240.121 258.912 241.346 250.98 242.645 245.206C243.292 242.323 243.964 239.972 244.606 238.436C244.922 237.67 245.24 237.11 245.469 236.83C245.58 236.688 245.665 236.623 245.678 236.616L245.652 236.575L245.673 236.619L245.678 236.616L245.652 236.575L245.673 236.619L245.497 236.255V236.653L245.673 236.619L245.497 236.255V236.653V236.2L245.33 236.623L245.497 236.653V236.2L245.33 236.623L245.412 236.42L245.3 236.61L245.33 236.623L245.412 236.42L245.3 236.61L245.309 236.616C245.393 236.66 245.766 237.127 246.121 238.007C246.766 239.547 247.481 242.276 248.182 246.274C250.301 258.29 252.41 281.796 254.306 321.883C254.341 322.618 254.965 323.186 255.701 323.151C256.436 323.116 257.005 322.492 256.969 321.756C255.428 289.178 253.75 267.534 252.022 253.982C251.156 247.202 250.282 242.454 249.378 239.31C248.921 237.734 248.468 236.56 247.932 235.672C247.658 235.228 247.364 234.848 246.976 234.535C246.596 234.224 246.068 233.983 245.497 233.987C244.953 233.985 244.464 234.198 244.1 234.466C243.394 234.998 242.958 235.707 242.514 236.589C241.706 238.247 240.993 240.604 240.289 243.552C237.852 253.84 235.729 271.265 234.197 286.184C232.668 301.092 231.742 313.453 231.742 313.461C231.686 314.196 232.237 314.836 232.972 314.891C233.706 314.946 234.346 314.395 234.401 313.661Z" fill="#5B6FBF"/>
<path d="M242.501 250.603C242.501 252.987 239.695 254.919 236.236 254.919C232.775 254.919 229.971 252.987 229.971 250.603C229.971 248.219 232.775 246.287 236.236 246.287C239.695 246.287 242.501 248.219 242.501 250.603Z" fill="#393B62"/>
<path d="M229.971 251.274C229.971 253.658 227.165 255.59 223.705 255.59C220.245 255.59 217.439 253.658 217.439 251.274C217.439 248.891 220.245 246.959 223.705 246.959C227.165 246.959 229.971 248.891 229.971 251.274Z" fill="#393B62"/>
<path d="M234.377 329.418C233.425 331.603 228.563 331.594 223.515 329.397C218.469 327.199 215.147 323.646 216.098 321.462C217.05 319.275 221.914 319.285 226.961 321.481C232.009 323.679 235.329 327.231 234.377 329.418Z" fill="#393B62"/>
<path d="M269.44 328.083C268.488 330.268 263.625 330.259 258.578 328.062C253.529 325.864 250.209 322.311 251.161 320.127C252.113 317.94 256.976 317.95 262.024 320.146C267.07 322.344 270.39 325.896 269.44 328.083Z" fill="#393B62"/>
<path d="M137.162 162.887C148.911 158.679 161.119 155.811 173.43 153.664C179.586 152.567 185.797 151.789 192.022 151.125C198.25 150.497 204.507 150.167 210.77 149.973C223.295 149.719 235.877 150.379 248.257 152.417C254.458 153.351 260.571 154.82 266.603 156.472C272.622 158.205 278.511 160.352 284.203 162.887C278.201 161.185 272.219 159.563 266.138 158.38C264.631 158.035 263.097 157.808 261.579 157.517C260.058 157.24 258.542 156.951 257.007 156.752L252.427 156.061L247.829 155.508C241.69 154.864 235.545 154.285 229.373 154.116C223.209 153.863 217.033 153.772 210.862 153.971C198.513 154.201 186.177 155.248 173.886 156.74C161.598 158.291 149.346 160.276 137.162 162.887Z" fill="#5B6FBF"/>
<path d="M223.176 151.888V75.639C223.176 74.903 222.579 74.3057 221.843 74.3057C221.107 74.3057 220.51 74.903 220.51 75.639V151.888C220.51 152.624 221.107 153.222 221.843 153.222C222.579 153.222 223.176 152.624 223.176 151.888Z" fill="#5B6FBF"/>
<path d="M220.344 136.879C216.296 136.879 212.982 133.567 212.982 129.519V94.2949C212.982 90.2469 216.296 86.9349 220.344 86.9349C224.392 86.9349 227.702 90.2469 227.702 94.2949V129.519C227.702 133.567 224.392 136.879 220.344 136.879Z" fill="#5B6FBF"/>
<path d="M222.02 87.1364V136.678C225.265 135.912 227.702 132.99 227.702 129.519V94.2951C227.702 90.8244 225.265 87.9004 222.02 87.1364Z" fill="#5B6FBF"/>
<path d="M220.344 136.879C216.296 136.879 212.982 133.567 212.982 129.519V94.2949C212.982 90.2469 216.296 86.9349 220.344 86.9349C224.392 86.9349 227.702 90.2469 227.702 94.2949V129.519C227.702 133.567 224.392 136.879 220.344 136.879Z" fill="#5B6FBF"/>
<path d="M223.176 135.667C219.128 135.667 215.816 132.356 215.816 128.307V93.0843C215.816 89.035 219.128 85.723 223.176 85.723C227.224 85.723 230.536 89.035 230.536 93.0843V128.307C230.536 132.356 227.224 135.667 223.176 135.667Z" fill="#9FCAEE"/>
<path d="M224.855 85.9241V135.467C228.101 134.7 230.538 131.777 230.538 128.307V93.0841C230.538 89.6121 228.101 86.6895 224.855 85.9241Z" fill="white"/>
<path d="M257.326 69.3507V119.677C257.326 120.415 257.924 121.011 258.66 121.011C259.396 121.011 259.993 120.415 259.993 119.677V69.3507C259.993 68.6134 259.396 68.0174 258.66 68.0174C257.924 68.0174 257.326 68.6134 257.326 69.3507Z" fill="#5B6FBF"/>
<path d="M247.943 73.2992V102.187C247.943 102.923 248.541 103.521 249.277 103.521C250.013 103.521 250.61 102.923 250.61 102.187V73.2992C250.61 72.5632 250.013 71.9659 249.277 71.9659C248.541 71.9659 247.943 72.5632 247.943 73.2992Z" fill="#5B6FBF"/>
<path d="M266.711 84.6631V116.498C266.711 117.234 267.308 117.831 268.044 117.831C268.78 117.831 269.378 117.234 269.378 116.498V84.6631C269.378 83.9271 268.78 83.3297 268.044 83.3297C267.308 83.3297 266.711 83.9271 266.711 84.6631Z" fill="#5B6FBF"/>
</svg>
